# xmcd
#
# Track frame offsets: 
#        183
#        30683
#        60545
#        85933
#        107995
#        141283
#        164658
#        190233
#        211908
#        241765
#        265995
#
# Disc length: 3879 seconds
#
# Revision: 3
# Processed by: cddbd v1.5.2PL0 Copyright (c) Steve Scherf et al.
# Submitted via: ExactAudioCopyFreeDBPlugin 1.0
#
DISCID=9c0f250b
DTITLE=Walker, Joe Louis - Blues survivor
DYEAR=1992
DGENRE=Blues
TTITLE0=Help yourself
TTITLE1=Shake for me
TTITLE2=My dignity
TTITLE3=Young girl's eyes
TTITLE4=Part of me
TTITLE5=Bad thing
TTITLE6=You just don't Know
TTITLE7=Put you down, baby
TTITLE8=Blues survivor
TTITLE9=Rainy nights
TTITLE10=Workin' blues
EXTD=
EXTT0=
EXTT1=
EXTT2=
EXTT3=
EXTT4=
EXTT5=
EXTT6=
EXTT7=
EXTT8=
EXTT9=
EXTT10=
PLAYORDER=
